PathFileType	4	(X/Y/Z)	Patient4_TMGait_0pt2_01_right_21.trc.trc
DataRate	CameraRate	NumFrames	NumMarkers	Units	OrigDataRate	OrigDataStartFrame	OrigNumFrames
43.750000000000	43.750000000000	4	33	mm	43.750000000000	53	       141
Frame#	Time	Sacral			L.Shoulder			Chest			R.Shoulder			Neck			R.ASIS			L.ASIS			R.Thigh.Superior			R.Thigh.Lateral			R.Thigh.Inferior			R.Patella			L.Thigh.Superior			L.Thigh.Lateral			L.Thigh.Inferior			L.Patella			L.Shank.Superior			L.Shank.Lateral			L.Shank.Inferior			R.Shank.Superior			R.Shank.Lateral			R.Shank.Inferior			R.Heel			R.Midfoot.Superior			R.Midfoot.Lateral			R.Toe			L.Heel			L.Midfoot.Lateral			L.Midfoot.Superior			L.Toe			L.Elbow			L.Wrist			R.Elbow			R.Wrist			
		X1	Y1	Z1	X2	Y2	Z2	X3	Y3	Z3	X4	Y4	Z4	X5	Y5	Z5	X6	Y6	Z6	X7	Y7	Z7	X8	Y8	Z8	X9	Y9	Z9	X10	Y10	Z10	X11	Y11	Z11	X12	Y12	Z12	X13	Y13	Z13	X14	Y14	Z14	X15	Y15	Z15	X16	Y16	Z16	X17	Y17	Z17	X18	Y18	Z18	X19	Y19	Z19	X20	Y20	Z20	X21	Y21	Z21	X22	Y22	Z22	X23	Y23	Z23	X24	Y24	Z24	X25	Y25	Z25	X26	Y26	Z26	X27	Y27	Z27	X28	Y28	Z28	X29	Y29	Z29	X30	Y30	Z30	X31	Y31	Z31	X32	Y32	Z32	X33	Y33	Z33	

53	48.328571428571	739.519199984459	990.260569782797	584.624007127481	937.994345535622	1414.035124921140	412.029746093392	1029.069965121421	1341.262007091156	577.671266634932	940.793262694794	1413.374713862087	749.381952450982	917.139159472672	1476.938184499518	570.292807895701	968.114773000677	921.391892538007	705.432188112277	956.969775413333	942.682256711327	431.826458472106	1022.780771769075	726.997111535959	650.205221242693	951.383873471456	605.970335724408	698.735062575493	1026.987765990965	565.820357876481	609.412385769775	1032.059545989469	468.490350418486	606.447972689994	1023.994992790371	744.051682084563	460.096688113501	966.583694330707	622.533482156121	378.151783677916	1056.236936887983	547.560300563239	445.748808718445	1056.093192222857	457.898264930580	433.725901207722	983.064937074360	401.310224663561	415.752840747651	840.784326578801	377.270840514961	355.782589921490	812.925918118479	244.892517331650	397.829458498893	982.947318040910	382.425287615219	608.713760964247	897.759958260388	289.578822950104	671.523197808090	910.153566838220	195.067593682154	600.011215902104	744.685709884218	46.372635088708	575.358265258076	919.142888919496	96.745938643677	605.305765312604	830.504901008323	38.032534668826	646.247542271583	1038.271409645935	39.589987320136	629.351053163047	613.467292453587	194.346286476196	417.650890074892	673.594114367231	150.168226111857	338.648861227177	777.889027310192	149.416831855574	366.512942347596	850.333699659918	36.681221652405	335.897856837812	901.755274234799	1058.760642388789	301.898812143871	964.417088068127	806.241967948193	299.406182409213	929.873926525492	1063.520278829205	872.295408075069	1096.858852548693	865.272610418621	897.230783140053	
54	48.351428571429	737.450587456250	989.452390366797	587.528000980616	933.374816856241	1413.239542305829	412.461322073816	1027.030287012344	1340.609863156188	576.717927749902	941.491604553118	1412.833643015201	749.803875505506	915.037952640248	1476.227234434262	570.814629168560	967.047298746467	920.538919675089	706.029037318828	953.403529819777	942.418545335063	432.525743774439	1021.360797781911	726.006545874633	650.831827373659	949.979579910902	605.056118061007	699.207224130990	1025.401840079938	565.040068132924	609.596089656486	1030.341800830064	467.474470597178	606.438923657955	1024.938929211692	747.697934744709	462.467737680023	972.226626014793	624.740886773147	379.897413328234	1063.474023477292	552.239733207464	448.453580086888	1065.832921295332	462.205276096677	435.907891896176	993.719957566503	404.227079228928	417.277912263911	851.342429046049	378.354033515280	358.144598539952	826.341217803809	245.193341096166	399.121479106756	980.628280535001	381.570997429999	608.697431112102	894.949205838709	289.183454077847	671.545509262709	906.514943706360	194.695291388718	599.934348770771	740.184282918916	46.594191683888	575.379491838937	914.625232324829	96.708555232261	605.278782890494	825.972582352356	38.119376851933	646.274770783562	1033.723750678211	39.496195170397	629.374161468820	628.329102990843	190.461990134484	420.701979659304	688.035401010811	149.413266783836	339.806880002831	792.629838424304	150.024289130679	366.542992471340	866.685840487244	38.195532947207	331.912658222253	883.618022240405	1059.942540840237	302.476029312011	927.725094567754	803.186121661711	299.103455285307	945.195250966400	1063.308858328095	873.927689988811	1125.548760212468	876.924842444294	895.211490299865	
55	48.374285714286	735.426314218774	989.101326446363	590.139506727043	928.810753811226	1412.919914467280	412.838691479269	1025.030632939384	1340.352972019688	575.636165234490	942.240549932453	1412.721025798224	750.023920522563	912.963275023822	1475.913110741572	571.216476001134	965.893749665474	919.965527146222	706.366428322835	949.847799089115	942.629858488299	432.986632037533	1019.544782524541	725.193943577713	651.295266269388	947.985250306474	604.447665420345	699.588987918789	1023.221067917672	564.419981679122	609.765162485685	1027.924736731699	466.704093393651	606.469433421346	1025.030534808374	751.402005996110	464.335044179209	976.440212393226	627.374964730089	381.128771681829	1068.951684845659	557.090668954518	450.502957211558	1073.883520759764	467.080025789770	437.532277806402	1003.407890846182	407.519562756376	418.226212543044	861.661854308630	378.007055598444	359.709838221766	841.170014955973	244.013126821192	399.756638006529	977.738498317978	380.967413246504	608.716899350547	891.678201553204	288.941638969310	671.547428676850	902.669097258533	194.467878209322	599.858962054151	735.681204144128	46.820105532430	575.366467244014	910.082723747935	96.650983848988	605.191619545583	821.431978141265	38.226828130338	646.278126193570	1029.164580191423	39.407747717605	629.408701089389	645.672275306448	182.542763826302	422.805893385672	705.537094989308	145.348281442930	340.267795577454	810.132170723555	148.860641588501	366.060047949382	887.274574717402	39.601087191808	327.919189004851	865.926716514567	1062.272319046180	302.768951138417	893.258172257187	802.890147658582	299.444449413703	960.669374931063	1064.241904388138	875.093637136843	1153.696848549387	890.780964244094	892.300433530302	
56	48.397142857143	733.469743726726	989.233500960998	592.505119944346	924.257920900354	1413.114908159565	413.157904022575	1023.048299678531	1340.544920850248	574.413644133151	943.032216317929	1413.086741149133	750.036249100847	910.885215080193	1476.040058003048	571.502840876415	964.723450907631	919.721082801304	706.420072013781	946.311336689824	943.365060284851	433.190661218531	1017.337010961891	724.585071875690	651.571607089839	945.398976252572	604.179768684941	699.903763217571	1020.400092610494	563.975105804445	609.924195955638	1024.739870903630	466.208067884935	606.554857505464	1024.296062821759	755.093120262709	465.616978587370	979.176511959672	630.342343647725	381.766133183445	1072.636921117690	561.959307527761	451.775758904271	1080.165448050734	472.393774383638	438.471549805521	1012.034952917384	411.120681011896	418.512880513478	871.778629016558	376.276630940172	360.310260063509	857.321430463931	241.534285957997	399.627521601383	974.223081151831	380.641193943616	608.793425138610	887.912095269271	288.862097822304	671.554242019887	898.594752268504	194.394026563742	599.802240495371	731.169947670395	47.044421248411	575.325034918995	905.522409651755	96.581265781947	605.061624460764	816.880931540764	38.349885396597	646.259893949638	1024.593397390673	39.324430322938	629.450842885345	665.475139849785	171.159043070585	423.715262659422	726.046804644449	138.299508648273	339.913417084872	830.270154680520	146.082820939580	365.032560993588	911.755426116298	40.858393435668	324.164979375835	848.821726298562	1065.657423538758	302.901307313242	861.439203424134	804.917539759810	300.459725754200	976.171860875431	1066.378488515695	875.794067933299	1180.971993213693	906.764137907254	888.527880503417	
